<svg width="476" height="350" viewBox="0 0 476 350" fill="none" xmlns="http://www.w3.org/2000/svg">
<path fill-rule="evenodd" clip-rule="evenodd" d="M195.659 34.727V249H221.579V243.24H201.779V30.3548C229.844 11.2001 263.77 0 300.312 0C396.962 0 475.312 78.3502 475.312 175C475.312 256.218 419.985 324.513 344.965 344.252V211.488L383.125 251.52V198.6H377.005V236.112L338.845 196.08V345.744C326.447 348.53 313.551 350 300.312 350C230.313 350 169.913 308.902 141.925 249.519L142.145 249H142.152L148.56 233.88H168.864L175.272 249H182.112L158.712 196.08L140.836 236.506L140.812 236.5L138.502 241.773C132.959 228.355 129.036 214.097 126.978 199.243H115.169V249H112.885V199.243H100.916V197.242H126.712C125.788 189.958 125.312 182.535 125.312 175C125.312 117.591 152.956 66.6379 195.659 34.727ZM158.712 209.976L151.008 228.12H166.416L158.712 209.976ZM235.489 249H250.609C255.505 249 259.849 247.944 263.641 245.832C267.433 243.72 270.409 240.792 272.569 237.048C274.729 233.256 275.809 228.84 275.809 223.8C275.809 218.76 274.729 214.368 272.569 210.624C270.409 206.832 267.433 203.88 263.641 201.768C259.849 199.656 255.505 198.6 250.609 198.6H235.489V249ZM241.609 204.72H250.609C254.401 204.72 257.713 205.512 260.545 207.096C263.425 208.632 265.657 210.816 267.241 213.648C268.873 216.48 269.689 219.864 269.689 223.8C269.689 227.688 268.873 231.072 267.241 233.952C265.657 236.784 263.425 238.992 260.545 240.576C257.713 242.112 254.401 242.88 250.609 242.88H241.609V204.72ZM291.843 198.6H320.643V204.36H297.963V218.76H319.203V224.52H297.963V243.24H320.643V249H291.843V198.6ZM95.6297 249H93.2081L83.3832 229.263H55.8459L46.2286 249H43.807L69.6838 196L95.6297 249ZM82.553 227.262L69.5454 200.969L56.8146 227.262H82.553ZM29.7513 249L2.28324 220.223V249H0V197.242H2.28324V216.013L23.9395 197.242H27.1914L2.90595 217.945L32.7957 249H29.7513Z" fill="#1E2020"/>
</svg>
